<svg xmlns="http://www.w3.org/2000/svg" xmlns:xlink="http://www.w3.org/1999/xlink" width="500" zoomAndPan="magnify"
     viewBox="0 0 375 374.999991" height="500" preserveAspectRatio="xMidYMid meet" version="1.0">
    <defs>
        <g/>
    </defs>
    <g fill="#d3d3d3" fill-opacity="1">
        <g transform="translate(0.0000045, 210.607424)">
            <g>
                <path d="M 62.390625 1.984375 C 54.566406 1.984375 47.671875 0.398438 41.703125 -2.765625 C 35.734375 -5.929688 31.160156 -10.316406 27.984375 -15.921875 C 24.816406 -21.535156 23.234375 -27.878906 23.234375 -34.953125 C 23.234375 -42.035156 24.816406 -48.378906 27.984375 -53.984375 C 31.160156 -59.585938 35.734375 -64.007812 41.703125 -67.25 C 47.671875 -70.5 54.566406 -72.125 62.390625 -72.125 C 70.347656 -72.125 77.3125 -70.535156 83.28125 -67.359375 C 89.257812 -64.191406 93.832031 -59.804688 97 -54.203125 C 100.175781 -48.597656 101.765625 -42.253906 101.765625 -35.171875 C 101.765625 -24.410156 98.1875 -15.523438 91.03125 -8.515625 C 83.882812 -1.515625 74.335938 1.984375 62.390625 1.984375 Z M 62.390625 1.984375 "/>
            </g>
        </g>
    </g>
    <g fill="#d3d3d3" fill-opacity="1">
        <g transform="translate(124.991672, 210.607424)">
            <g>
                <path d="M 62.390625 1.984375 C 54.566406 1.984375 47.671875 0.398438 41.703125 -2.765625 C 35.734375 -5.929688 31.160156 -10.316406 27.984375 -15.921875 C 24.816406 -21.535156 23.234375 -27.878906 23.234375 -34.953125 C 23.234375 -42.035156 24.816406 -48.378906 27.984375 -53.984375 C 31.160156 -59.585938 35.734375 -64.007812 41.703125 -67.25 C 47.671875 -70.5 54.566406 -72.125 62.390625 -72.125 C 70.347656 -72.125 77.3125 -70.535156 83.28125 -67.359375 C 89.257812 -64.191406 93.832031 -59.804688 97 -54.203125 C 100.175781 -48.597656 101.765625 -42.253906 101.765625 -35.171875 C 101.765625 -24.410156 98.1875 -15.523438 91.03125 -8.515625 C 83.882812 -1.515625 74.335938 1.984375 62.390625 1.984375 Z M 62.390625 1.984375 "/>
            </g>
        </g>
    </g>
    <g fill="#d3d3d3" fill-opacity="1">
        <g transform="translate(249.983339, 210.607424)">
            <g>
                <path d="M 62.390625 1.984375 C 54.566406 1.984375 47.671875 0.398438 41.703125 -2.765625 C 35.734375 -5.929688 31.160156 -10.316406 27.984375 -15.921875 C 24.816406 -21.535156 23.234375 -27.878906 23.234375 -34.953125 C 23.234375 -42.035156 24.816406 -48.378906 27.984375 -53.984375 C 31.160156 -59.585938 35.734375 -64.007812 41.703125 -67.25 C 47.671875 -70.5 54.566406 -72.125 62.390625 -72.125 C 70.347656 -72.125 77.3125 -70.535156 83.28125 -67.359375 C 89.257812 -64.191406 93.832031 -59.804688 97 -54.203125 C 100.175781 -48.597656 101.765625 -42.253906 101.765625 -35.171875 C 101.765625 -24.410156 98.1875 -15.523438 91.03125 -8.515625 C 83.882812 -1.515625 74.335938 1.984375 62.390625 1.984375 Z M 62.390625 1.984375 "/>
            </g>
        </g>
    </g>
    <g fill="#60a5fa" fill-opacity="1">
        <g transform="translate(0.0000045, 211.949986)">
            <g>
                <path d="M 62.375 1.984375 C 54.5625 1.984375 47.664062 0.398438 41.6875 -2.765625 C 35.71875 -5.929688 31.144531 -10.316406 27.96875 -15.921875 C 24.800781 -21.523438 23.21875 -27.867188 23.21875 -34.953125 C 23.21875 -42.023438 24.800781 -48.363281 27.96875 -53.96875 C 31.144531 -59.570312 35.71875 -63.992188 41.6875 -67.234375 C 47.664062 -70.484375 54.5625 -72.109375 62.375 -72.109375 C 70.34375 -72.109375 77.3125 -70.519531 83.28125 -67.34375 C 89.25 -64.175781 93.816406 -59.789062 96.984375 -54.1875 C 100.160156 -48.582031 101.75 -42.242188 101.75 -35.171875 C 101.75 -24.398438 98.171875 -15.515625 91.015625 -8.515625 C 83.867188 -1.515625 74.320312 1.984375 62.375 1.984375 Z M 62.375 1.984375 "/>
            </g>
        </g>
    </g>
    <g fill="#fcd34d" fill-opacity="1">
        <g transform="translate(124.978122, 211.949986)">
            <g>
                <path d="M 62.375 1.984375 C 54.5625 1.984375 47.664062 0.398438 41.6875 -2.765625 C 35.71875 -5.929688 31.144531 -10.316406 27.96875 -15.921875 C 24.800781 -21.523438 23.21875 -27.867188 23.21875 -34.953125 C 23.21875 -42.023438 24.800781 -48.363281 27.96875 -53.96875 C 31.144531 -59.570312 35.71875 -63.992188 41.6875 -67.234375 C 47.664062 -70.484375 54.5625 -72.109375 62.375 -72.109375 C 70.34375 -72.109375 77.3125 -70.519531 83.28125 -67.34375 C 89.25 -64.175781 93.816406 -59.789062 96.984375 -54.1875 C 100.160156 -48.582031 101.75 -42.242188 101.75 -35.171875 C 101.75 -24.398438 98.171875 -15.515625 91.015625 -8.515625 C 83.867188 -1.515625 74.320312 1.984375 62.375 1.984375 Z M 62.375 1.984375 "/>
            </g>
        </g>
    </g>
</svg>